<svg width="45" height="40" viewBox="0 0 45 40" fill="none" xmlns="http://www.w3.org/2000/svg">
<path fill-rule="evenodd" clip-rule="evenodd" d="M27.8965 4.1122C28.5457 5.78885 28.6511 7.6623 28.7567 9.53764C28.8631 11.4275 28.9696 13.3194 29.6328 15.0136L29.9074 15.715C30.8162 18.0366 32.0651 20.2089 33.6128 22.16L34.0804 22.7495C35.2099 24.1735 36.7881 25.212 38.3647 26.2495C39.9183 27.2718 41.4704 28.2931 42.59 29.6812C43.5128 30.7734 44.0694 32.1875 44.0694 33.7321C44.0694 36.6594 42.0703 39.1177 39.3684 39.8055C38.5614 40.013 37.7327 40.0518 36.9302 39.9347C35.0946 39.6913 33.3716 38.8186 31.6469 37.945C29.9638 37.0926 28.2791 36.2393 26.4864 35.969L25.7442 35.8571C23.2878 35.4867 20.79 35.4867 18.3335 35.8571L17.5913 35.969C15.7986 36.2393 14.1139 37.0926 12.4308 37.945C10.6533 38.8454 8.8776 39.7447 6.9786 39.9552C5.68618 40.111 4.33446 39.8635 3.1204 39.1596C0.136456 37.4295 -0.885903 33.5979 0.836879 30.6013C0.925651 30.4469 1.01997 30.2977 1.11946 30.1539C2.2508 28.5182 3.97372 27.3844 5.69854 26.2494C7.27518 25.212 8.85341 24.1735 9.98288 22.7495L10.4505 22.16C11.9981 20.2088 13.247 18.0366 14.1558 15.715L14.4304 15.0136C15.0937 13.3194 15.2002 11.4275 15.3065 9.53765C15.4218 7.48999 15.5369 5.44458 16.36 3.65514C16.6612 2.99374 17.0785 2.38117 17.6027 1.85142C18.1497 1.29727 18.7874 0.859941 19.4772 0.549788C20.2988 0.178322 21.1668 6.23236e-05 22.0254 1.1581e-05C22.8914 -0.00166131 23.7671 0.17788 24.5955 0.554025C25.2779 0.862246 25.9091 1.29509 26.4517 1.84251C26.6431 2.03517 26.8204 2.23885 26.983 2.45191C27.3661 2.9511 27.676 3.50995 27.8965 4.1122ZM22.0347 28.7888C21.5626 28.7888 21.2318 28.8085 20.9005 28.8283C20.5679 28.8481 20.2348 28.8679 19.7577 28.8679C17.0069 28.8679 15.0891 25.9198 16.4645 23.5613C16.6773 23.1963 16.7923 23.048 16.9336 22.8657C17.1119 22.6357 17.3322 22.3514 17.8442 21.5094C18.2789 20.7945 18.4261 20.4339 18.5587 20.1088C18.6569 19.8682 18.7471 19.6471 18.9401 19.316C19.6278 18.1368 20.8313 17.5472 22.0347 17.5472C23.2382 17.5472 24.4416 18.1368 25.1293 19.316C25.3223 19.6471 25.4126 19.8682 25.5107 20.1088C25.6434 20.4339 25.7905 20.7945 26.2252 21.5094C26.7372 22.3514 26.9575 22.6357 27.1358 22.8657C27.2772 23.048 27.3921 23.1963 27.605 23.5613C28.9803 25.9198 27.0625 28.8679 24.3118 28.8679C23.8346 28.8679 23.5015 28.8481 23.1689 28.8283C22.8376 28.8085 22.5068 28.7888 22.0347 28.7888Z" fill="white"/>
</svg>
